<?xml version="1.0" encoding="utf-8"?>
<!-- Generator: Adobe Illustrator 16.0.0, SVG Export Plug-In . SVG Version: 6.00 Build 0)  -->
<!DOCTYPE svg PUBLIC "-//W3C//DTD SVG 1.1//EN" "http://www.w3.org/Graphics/SVG/1.1/DTD/svg11.dtd">
<svg version="1.1"
	 id="Layer_1" xmlns:dc="http://purl.org/dc/elements/1.1/" xmlns:cc="http://creativecommons.org/ns#" xmlns:rdf="http://www.w3.org/1999/02/22-rdf-syntax-ns#" xmlns:svg="http://www.w3.org/2000/svg" xmlns:sodipodi="http://sodipodi.sourceforge.net/DTD/sodipodi-0.dtd" xmlns:inkscape="http://www.inkscape.org/namespaces/inkscape"
	 xmlns="http://www.w3.org/2000/svg" xmlns:xlink="http://www.w3.org/1999/xlink" x="0px" y="0px" width="51px" height="51.001px"
	 viewBox="-7.948 -8.939 51 51.001" enable-background="new -7.948 -8.939 51 51.001" xml:space="preserve">
<g>
	<path fill="#CCCCCC" d="M17.74,7.021l9.983,11.804c0.58,0.655,0.511,1.676-0.147,2.259c-0.653,0.58-1.674,0.508-2.26-0.146
		l-7.576-8.961l-7.577,8.888C9.58,21.52,8.56,21.591,7.904,21.01c-0.656-0.583-0.728-1.604-0.146-2.26L17.74,7.021z"/>
	<path fill="#CCCCCC" d="M17.521-8.934c14.061,0,25.5,11.511,25.5,25.498c0,13.987-11.513,25.499-25.5,25.499
		c-13.988,0-25.5-11.512-25.5-25.499C-7.979,2.577,3.533-8.934,17.521-8.934z M17.521,38.856c12.313,0,22.294-10.053,22.294-22.293
		c0-12.238-9.981-22.292-22.294-22.292S-4.773,4.326-4.773,16.563C-4.773,28.804,5.282,38.856,17.521,38.856z"/>
</g>
</svg>
